<?xml version="1.0" encoding="UTF-8"?>
<level>
  <owner>Fistachka</owner>
  <repo>zima4</repo>
  <version>v1.0.0</version>
  <next number="1" owner="Fistachka" repo="zima3"/>
  <readme>
    <ru>e792ee105a5082854c985870e29ca28b7d2b82c9ff5116099e40b275c9da8c5a</ru>
    <en>986783086ea8578159c6f3a60d949ee2f446c82b3f743619fde73ae09d14edc1</en>
  </readme>
  <license>b1b99f5538d1fd3702219bff50c665196dfa42f6ee755c37fe41a6178d6bc6e5</license>
  <exercise number="1">
    <scale>minor</scale>
    <cadenceVariant>harmonic</cadenceVariant>
    <bpm>93</bpm>
    <lowestNote>6</lowestNote>
    <tonalities>8</tonalities>
    <video name="9t.mp4" size="2245187" type="video/mp4" volume="0.5">c469b8132dd1b095a3ecf198bf47a26046948abae716df429b3a6edda67d3b12</video>
    <notes>
      <note number="1" values="58" ticks="66" durationTicks="73" ppq="96" velocity="0.789"/>
      <note number="2" values="58" ticks="178" durationTicks="71" ppq="96" velocity="0.729"/>
      <note number="3" values="58" ticks="278" durationTicks="141" ppq="96" velocity="0.794"/>
      <note number="4" values="58" ticks="457" durationTicks="70" ppq="96" velocity="0.758"/>
      <note number="5" values="58" ticks="553" durationTicks="72" ppq="96" velocity="0.712"/>
      <note number="6" values="58" ticks="648" durationTicks="148" ppq="96" velocity="0.8"/>
    </notes>
  </exercise>
  <exercise number="2">
    <scale>minor</scale>
    <cadenceVariant>harmonic</cadenceVariant>
    <bpm>98</bpm>
    <lowestNote>6</lowestNote>
    <tonalities>8</tonalities>
    <video name="10t.mp4" size="1757034" type="video/mp4" volume="0.5">65033f080d7eb7a04500eea385dc2e8a19615786c9e9c957f9d3fa239a58296b</video>
    <notes>
      <note number="1" values="68" ticks="120" durationTicks="143" ppq="96" velocity="0.837"/>
      <note number="2" values="68" ticks="287" durationTicks="158" ppq="96" velocity="0.804"/>
      <note number="3" values="68" ticks="474" durationTicks="153" ppq="96" velocity="0.837"/>
      <note number="4" values="68" ticks="647" durationTicks="74" ppq="96" velocity="0.802"/>
      <note number="5" values="68" ticks="741" durationTicks="81" ppq="96" velocity="0.787"/>
    </notes>
  </exercise>
  <exercise number="3">
    <scale>minor</scale>
    <cadenceVariant>harmonic</cadenceVariant>
    <bpm>105</bpm>
    <lowestNote>6</lowestNote>
    <tonalities>8</tonalities>
    <video name="11t.mp4" size="1878005" type="video/mp4" volume="0.5">872d87a2636fe4a8192a3c961267aab3dabcda77a719a0d8fda0b1f4ae44f2d1</video>
    <notes>
      <note number="1" values="48" ticks="81" durationTicks="72" ppq="96" velocity="0.812"/>
      <note number="2" values="48" ticks="180" durationTicks="68" ppq="96" velocity="0.769"/>
      <note number="3" values="48" ticks="277" durationTicks="143" ppq="96" velocity="0.817"/>
      <note number="4" values="48" ticks="445" durationTicks="75" ppq="96" velocity="0.812"/>
      <note number="5" values="48" ticks="542" durationTicks="69" ppq="96" velocity="0.744"/>
      <note number="6" values="48" ticks="630" durationTicks="96" ppq="96" velocity="0.822"/>
    </notes>
  </exercise>
  <exercise number="4">
    <scale>minor</scale>
    <cadenceVariant>harmonic</cadenceVariant>
    <bpm>117</bpm>
    <lowestNote>6</lowestNote>
    <tonalities>8</tonalities>
    <video name="12t.mp4" size="1808005" type="video/mp4" volume="0.5">af625d51a7777d8c812c5249c460a869779735c15ca96af99d0f862b0219e77f</video>
    <notes>
      <note number="1" values="58" ticks="118" durationTicks="93" ppq="96" velocity="0.824"/>
      <note number="2" values="58" ticks="308" durationTicks="143" ppq="96" velocity="0.792"/>
      <note number="3" values="58" ticks="505" durationTicks="164" ppq="96" velocity="0.819"/>
      <note number="4" values="58" ticks="696" durationTicks="72" ppq="96" velocity="0.787"/>
      <note number="5" values="58" ticks="789" durationTicks="92" ppq="96" velocity="0.782"/>
    </notes>
  </exercise>
  <exercise number="5">
    <scale>minor</scale>
    <cadenceVariant>harmonic</cadenceVariant>
    <bpm>122</bpm>
    <lowestNote>6</lowestNote>
    <tonalities>8</tonalities>
    <video name="13t.mp4" size="1966933" type="video/mp4" volume="0.5">b4cc520217ed4b1e747e9f321651a5406d68cf0f71fbde891f65baccb99010cf</video>
    <notes>
      <note number="1" values="38" ticks="67" durationTicks="69" ppq="96" velocity="0.809"/>
      <note number="2" values="38" ticks="160" durationTicks="68" ppq="96" velocity="0.772"/>
      <note number="3" values="38" ticks="248" durationTicks="96" ppq="96" velocity="0.809"/>
      <note number="4" values="38" ticks="431" durationTicks="71" ppq="96" velocity="0.801"/>
      <note number="5" values="38" ticks="520" durationTicks="70" ppq="96" velocity="0.756"/>
      <note number="6" values="38" ticks="607" durationTicks="121" ppq="96" velocity="0.811"/>
    </notes>
  </exercise>
  <exercise number="6">
    <scale>minor</scale>
    <cadenceVariant>harmonic</cadenceVariant>
    <bpm>83</bpm>
    <lowestNote>6</lowestNote>
    <tonalities>8</tonalities>
    <video name="14t.mp4" size="2300465" type="video/mp4" volume="0.5">3c212f2e14980a2865b096f123573eb8d6bb2a2de2ea32512a24754453b0fc07</video>
    <notes>
      <note number="1" values="48" ticks="87" durationTicks="72" ppq="96" velocity="0.824"/>
      <note number="2" values="48" ticks="190" durationTicks="68" ppq="96" velocity="0.799"/>
      <note number="3" values="48" ticks="294" durationTicks="71" ppq="96" velocity="0.827"/>
      <note number="4" values="48" ticks="392" durationTicks="90" ppq="96" velocity="0.802"/>
    </notes>
  </exercise>
  <exercise number="7">
    <scale>minor</scale>
    <cadenceVariant>harmonic</cadenceVariant>
    <bpm>84</bpm>
    <lowestNote>6</lowestNote>
    <tonalities>8</tonalities>
    <video name="15t.mp4" size="1878153" type="video/mp4" volume="0.5">1ef54a408a74ca8d3b0e01658cc0027a17e6bd6eb0d247e42ef7232f6df1f43f</video>
    <notes>
      <note number="1" values="58" ticks="40" durationTicks="28" ppq="96" velocity="0.794"/>
      <note number="2" values="58" ticks="89" durationTicks="33" ppq="96" velocity="0.772"/>
      <note number="3" values="58" ticks="134" durationTicks="51" ppq="96" velocity="0.817"/>
      <note number="4" values="48" ticks="208" durationTicks="26" ppq="96" velocity="0.794"/>
      <note number="5" values="48" ticks="247" durationTicks="28" ppq="96" velocity="0.774"/>
      <note number="6" values="48" ticks="293" durationTicks="90" ppq="96" velocity="0.817"/>
    </notes>
  </exercise>
  <exercise number="8">
    <scale>minor</scale>
    <cadenceVariant>harmonic</cadenceVariant>
    <bpm>109</bpm>
    <lowestNote>6</lowestNote>
    <tonalities>8</tonalities>
    <video name="16t.mp4" size="1928490" type="video/mp4" volume="0.5">04e43abdcce19d1231bc784adf857776f82c40fbaba01cbe6d5d0125b80d9103</video>
    <notes>
      <note number="1" values="38" ticks="91" durationTicks="54" ppq="96" velocity="0.829"/>
      <note number="2" values="28" ticks="172" durationTicks="68" ppq="96" velocity="0.782"/>
      <note number="3" values="18" ticks="263" durationTicks="74" ppq="96" velocity="0.819"/>
      <note number="4" values="18" ticks="353" durationTicks="93" ppq="96" velocity="0.769"/>
    </notes>
  </exercise>
  <exercise number="9">
    <scale>minor</scale>
    <cadenceVariant>harmonic</cadenceVariant>
    <bpm>120</bpm>
    <lowestNote>6</lowestNote>
    <tonalities>8</tonalities>
    <video name="17t.mp4" size="1795706" type="video/mp4" volume="0.5">da2c1fd1e36838e3481039739417c821db7ef04570bf4da255efb61c141ee935</video>
    <notes>
      <note number="1" values="58" ticks="49" durationTicks="30" ppq="96" velocity="0.787"/>
      <note number="2" values="58" ticks="97" durationTicks="32" ppq="96" velocity="0.724"/>
      <note number="3" values="58" ticks="145" durationTicks="72" ppq="96" velocity="0.787"/>
      <note number="4" values="58" ticks="236" durationTicks="36" ppq="96" velocity="0.756"/>
      <note number="5" values="58" ticks="284" durationTicks="37" ppq="96" velocity="0.8"/>
      <note number="6" values="58" ticks="329" durationTicks="96" ppq="96" velocity="0.8"/>
    </notes>
  </exercise>
  <exercise number="10">
    <scale>minor</scale>
    <cadenceVariant>harmonic</cadenceVariant>
    <bpm>148</bpm>
    <lowestNote>6</lowestNote>
    <tonalities>8</tonalities>
    <video name="18t.mp4" size="1898858" type="video/mp4" volume="0.5">044c130357002a26d7b33cd37e77eb5ff82bf39608e5c3e33ad741f3393d111c</video>
    <notes>
      <note number="1" values="68" ticks="12" durationTicks="73" ppq="96" velocity="0.835"/>
      <note number="2" values="68" ticks="102" durationTicks="75" ppq="96" velocity="0.803"/>
      <note number="3" values="68" ticks="202" durationTicks="76" ppq="96" velocity="0.8"/>
      <note number="4" values="68" ticks="296" durationTicks="31" ppq="96" velocity="0.8"/>
      <note number="5" values="68" ticks="342" durationTicks="50" ppq="96" velocity="0.8"/>
    </notes>
  </exercise>
  <exercise number="11">
    <scale>minor</scale>
    <cadenceVariant>harmonic</cadenceVariant>
    <bpm>148</bpm>
    <lowestNote>6</lowestNote>
    <tonalities>8</tonalities>
    <video name="19t.mp4" size="1264566" type="video/mp4" volume="0.5">a7cdbbf48fd00bfffd9fe7e55f6dc189b729f06caadb96613a9ac53ac539062b</video>
    <notes>
      <note number="1" values="48" ticks="25" durationTicks="36" ppq="96" velocity="0.811"/>
      <note number="2" values="48" ticks="73" durationTicks="34" ppq="96" velocity="0.764"/>
      <note number="3" values="48" ticks="121" durationTicks="65" ppq="96" velocity="0.811"/>
      <note number="4" values="48" ticks="206" durationTicks="30" ppq="96" velocity="0.811"/>
      <note number="5" values="48" ticks="255" durationTicks="28" ppq="96" velocity="0.8"/>
      <note number="6" values="48" ticks="298" durationTicks="65" ppq="96" velocity="0.8"/>
    </notes>
  </exercise>
  <exercise number="12">
    <scale>minor</scale>
    <cadenceVariant>harmonic</cadenceVariant>
    <bpm>155</bpm>
    <lowestNote>6</lowestNote>
    <tonalities>8</tonalities>
    <video name="20t.mp4" size="1300641" type="video/mp4" volume="0.5">e22bfae42c3ab6004f2cc73a6a1373bc4db3bbfa4721634bea7604e34a2fe61d</video>
    <notes>
      <note number="1" values="58" ticks="8" durationTicks="73" ppq="96" velocity="0.835"/>
      <note number="2" values="58" ticks="98" durationTicks="75" ppq="96" velocity="0.795"/>
      <note number="3" values="58" ticks="198" durationTicks="76" ppq="96" velocity="0.795"/>
      <note number="4" values="58" ticks="292" durationTicks="31" ppq="96" velocity="0.795"/>
      <note number="5" values="58" ticks="338" durationTicks="50" ppq="96" velocity="0.795"/>
    </notes>
  </exercise>
  <exercise number="13">
    <scale>minor</scale>
    <cadenceVariant>harmonic</cadenceVariant>
    <bpm>162</bpm>
    <lowestNote>6</lowestNote>
    <tonalities>8</tonalities>
    <video name="21t.mp4" size="1761767" type="video/mp4" volume="0.5">7b88541080353513c9920f926b11e936d2d64c29a17a7585319f3fbd996cdf13</video>
    <notes>
      <note number="1" values="38" ticks="79" durationTicks="36" ppq="96" velocity="0.803"/>
      <note number="2" values="38" ticks="127" durationTicks="34" ppq="96" velocity="0.764"/>
      <note number="3" values="38" ticks="175" durationTicks="65" ppq="96" velocity="0.803"/>
      <note number="4" values="38" ticks="260" durationTicks="30" ppq="96" velocity="0.803"/>
      <note number="5" values="38" ticks="309" durationTicks="28" ppq="96" velocity="0.795"/>
      <note number="6" values="38" ticks="352" durationTicks="65" ppq="96" velocity="0.795"/>
    </notes>
  </exercise>
  <exercise number="14">
    <scale>minor</scale>
    <cadenceVariant>harmonic</cadenceVariant>
    <bpm>163</bpm>
    <lowestNote>6</lowestNote>
    <tonalities>8</tonalities>
    <video name="22t.mp4" size="1292701" type="video/mp4" volume="0.5">84a7a704d08d84094742e2df4d511c68a70b95efd29f0562266141febad2df4e</video>
    <notes>
      <note number="1" values="48" ticks="38" durationTicks="73" ppq="96" velocity="0.835"/>
      <note number="2" values="48" ticks="128" durationTicks="75" ppq="96" velocity="0.787"/>
      <note number="3" values="48" ticks="228" durationTicks="76" ppq="96" velocity="0.787"/>
      <note number="4" values="48" ticks="322" durationTicks="31" ppq="96" velocity="0.787"/>
    </notes>
  </exercise>
  <exercise number="15">
    <scale>minor</scale>
    <cadenceVariant>harmonic</cadenceVariant>
    <bpm>162</bpm>
    <lowestNote>6</lowestNote>
    <tonalities>8</tonalities>
    <video name="23t.mp4" size="1629104" type="video/mp4" volume="0.5">bcaf34615ff81d6c2b8f077648c5d74316853bd150410d565bcdb4051d9332b2</video>
    <notes>
      <note number="1" values="58" ticks="31" durationTicks="36" ppq="96" velocity="0.795"/>
      <note number="2" values="58" ticks="79" durationTicks="34" ppq="96" velocity="0.764"/>
      <note number="3" values="58" ticks="127" durationTicks="65" ppq="96" velocity="0.795"/>
      <note number="4" values="48" ticks="212" durationTicks="30" ppq="96" velocity="0.795"/>
      <note number="5" values="48" ticks="261" durationTicks="28" ppq="96" velocity="0.787"/>
      <note number="6" values="48" ticks="304" durationTicks="65" ppq="96" velocity="0.787"/>
    </notes>
  </exercise>
  <exercise number="16">
    <scale>minor</scale>
    <cadenceVariant>harmonic</cadenceVariant>
    <bpm>158</bpm>
    <lowestNote>6</lowestNote>
    <tonalities>8</tonalities>
    <video name="24t.mp4" size="1366385" type="video/mp4" volume="0.5">8c881ff202037451cd15dcbcb36a6f0738627758f9da2efa7b1114f62a00aa9b</video>
    <notes>
      <note number="1" values="38" ticks="24" durationTicks="73" ppq="96" velocity="0.835"/>
      <note number="2" values="28" ticks="114" durationTicks="75" ppq="96" velocity="0.78"/>
      <note number="3" values="18" ticks="203" durationTicks="57" ppq="96" velocity="0.78"/>
      <note number="4" values="18" ticks="293" durationTicks="107" ppq="96" velocity="0.78"/>
    </notes>
  </exercise>
</level>
